<svg width="90" height="32" viewBox="0 0 90 32" fill="none" xmlns="http://www.w3.org/2000/svg">
<path fill-rule="evenodd" clip-rule="evenodd" d="M6.71812 6.71757C7.71011 5.72557 9.59348 5.34578 12.2718 6.13352C12.4606 6.18905 12.6515 6.24999 12.8442 6.31629C11.6298 7.1782 10.44 8.18116 9.31084 9.31029C8.87424 9.74689 8.4572 10.1918 8.06039 10.643C7.51329 11.2651 7.57406 12.2129 8.19613 12.76C8.81819 13.3071 9.766 13.2463 10.3131 12.6243C10.6675 12.2213 11.0407 11.8231 11.4322 11.4316C12.9144 9.94939 14.4837 8.73835 16.0284 7.81847C17.573 8.73835 19.1423 9.94939 20.6245 11.4316C22.3065 13.1136 23.6393 14.9078 24.5937 16.6506C24.6229 16.7154 24.6568 16.7781 24.6951 16.8384C25.2348 17.8505 25.6458 18.8433 25.9226 19.7844C26.7104 22.4627 26.3306 24.346 25.3386 25.338C24.3466 26.33 22.4632 26.7098 19.7849 25.9221C19.5961 25.8666 19.4052 25.8056 19.2125 25.7393C20.4269 24.8774 21.6167 23.8745 22.7459 22.7453C23.1635 22.3277 23.5633 21.9024 23.9445 21.4713C24.4934 20.8508 24.4352 19.9028 23.8147 19.354C23.1942 18.8051 22.2462 18.8632 21.6974 19.4838C21.3568 19.8689 20.999 20.2495 20.6245 20.624C19.1423 22.1062 17.573 23.3173 16.0284 24.2371C14.4837 23.3173 12.9144 22.1062 11.4322 20.624C8.71081 17.9026 6.90357 14.8875 6.13407 12.2712C5.34634 9.59293 5.72612 7.70956 6.71812 6.71757ZM13.1183 3.25542C14.0718 3.53587 15.0479 3.92169 16.0284 4.40533C17.0088 3.92169 17.9849 3.53588 18.9384 3.25542C22.0611 2.33701 25.3277 2.46405 27.4599 4.59625C28.9191 6.05539 29.4396 8.07153 29.3296 10.159C29.2317 12.0189 28.6353 14.0318 27.6508 16.0278C28.1345 17.0082 28.5203 17.9843 28.8007 18.9379C29.7192 22.0605 29.5921 25.3272 27.4599 27.4594C25.3277 29.5916 22.0611 29.7186 18.9384 28.8002C17.9849 28.5197 17.0088 28.1339 16.0284 27.6503C15.0479 28.1339 14.0718 28.5197 13.1183 28.8002C9.99566 29.7186 6.72899 29.5916 4.5968 27.4594C3.13867 26.0012 2.61787 23.9868 2.72684 21.9009C2.82406 20.0398 3.42065 18.0253 4.40591 16.0279C3.92226 15.0474 3.53643 14.0713 3.25597 13.1177C2.33756 9.99511 2.4646 6.72844 4.5968 4.59624C6.72899 2.46405 9.99566 2.33701 13.1183 3.25542ZM22.7459 9.31029C21.6167 8.18116 20.4269 7.1782 19.2125 6.31629C19.4052 6.24999 19.5961 6.18905 19.7849 6.13352C22.4632 5.34579 24.3466 5.72557 25.3386 6.71757C26.0228 7.40176 26.4138 8.48246 26.3338 10.0013C26.2886 10.8601 26.0921 11.8198 25.7399 12.8437C24.878 11.6293 23.875 10.4394 22.7459 9.31029ZM9.31084 22.7453C10.44 23.8745 11.6298 24.8774 12.8442 25.7393C12.6515 25.8056 12.4606 25.8666 12.2718 25.9221C9.59348 26.7098 7.71011 26.33 6.71812 25.338C6.03437 24.6543 5.6435 23.5746 5.72275 22.0574C5.76765 21.1979 5.9642 20.2371 6.31683 19.2119C7.17874 20.4263 8.1817 21.6162 9.31084 22.7453ZM19 16C19 17.6569 17.6569 19 16 19C14.3431 19 13 17.6569 13 16C13 14.3431 14.3431 13 16 13C17.6569 13 19 14.3431 19 16Z" fill="#3F9142"/>
<path d="M44.4375 7.92188C46.0938 7.92188 47.5469 8.25781 48.7969 8.92969C50.0469 9.60156 51.0156 10.5391 51.7031 11.7422C52.4062 12.9453 52.7578 14.3594 52.7578 15.9844C52.7578 17.5312 52.4297 18.9375 51.7734 20.2031C51.1172 21.4531 50.1797 22.4453 48.9609 23.1797C47.7422 23.9141 46.2891 24.2812 44.6016 24.2812C43.5234 24.2812 42.4453 24.2266 41.3672 24.1172C40.3047 24.0078 39.2969 23.8594 38.3438 23.6719V8.53125C39.3125 8.375 40.3047 8.23438 41.3203 8.10938C42.3359 7.98437 43.375 7.92188 44.4375 7.92188ZM44.5078 10.9688C44.0391 10.9688 43.5469 10.9922 43.0312 11.0391C42.5156 11.0859 42.0391 11.1484 41.6016 11.2266V20.9766C42.0703 21.0703 42.5547 21.1406 43.0547 21.1875C43.5703 21.2188 44.0547 21.2344 44.5078 21.2344C45.5391 21.2344 46.4219 21.0156 47.1562 20.5781C47.8906 20.125 48.4531 19.5078 48.8438 18.7266C49.2344 17.9453 49.4297 17.0703 49.4297 16.1016C49.4297 15.1016 49.2344 14.2188 48.8438 13.4531C48.4531 12.6875 47.8906 12.0859 47.1562 11.6484C46.4219 11.1953 45.5391 10.9688 44.5078 10.9688ZM60.1884 11.8594C61.3447 11.8594 62.3994 12.1406 63.3525 12.7031C64.3056 13.25 65.0713 14 65.6494 14.9531C66.2431 15.8906 66.54 16.9453 66.54 18.1172C66.54 19.2891 66.2431 20.3438 65.6494 21.2812C65.0713 22.2188 64.3056 22.9688 63.3525 23.5312C62.3994 24.0781 61.3447 24.3516 60.1884 24.3516C59.0478 24.3516 57.9931 24.0781 57.0244 23.5312C56.0713 22.9688 55.3056 22.2188 54.7275 21.2812C54.1494 20.3438 53.8603 19.2891 53.8603 18.1172C53.8603 16.9453 54.1494 15.8906 54.7275 14.9531C55.3056 14 56.0713 13.25 57.0244 12.7031C57.9931 12.1406 59.0478 11.8594 60.1884 11.8594ZM60.1884 14.7422C59.6259 14.7422 59.1025 14.875 58.6181 15.1406C58.1338 15.4062 57.7431 15.7891 57.4463 16.2891C57.165 16.7891 57.0244 17.3984 57.0244 18.1172C57.0244 18.8359 57.165 19.4453 57.4463 19.9453C57.7431 20.4453 58.1338 20.8281 58.6181 21.0938C59.1025 21.3438 59.6259 21.4688 60.1884 21.4688C60.7509 21.4688 61.2744 21.3438 61.7588 21.0938C62.2431 20.8281 62.6338 20.4453 62.9306 19.9453C63.2275 19.4453 63.3759 18.8359 63.3759 18.1172C63.3759 17.3984 63.2275 16.7891 62.9306 16.2891C62.6338 15.7891 62.2431 15.4062 61.7588 15.1406C61.2744 14.875 60.7509 14.7422 60.1884 14.7422ZM77.3456 21.0703V24H68.7909V21.0703H71.4394V11.2266H68.7909V8.29688H77.3456V11.2266H74.6972V21.0703H77.3456ZM84.7294 8.71875V12.1641H88.0106V14.6484H84.7294V19.7578C84.7294 20.2891 84.8466 20.7109 85.0809 21.0234C85.3309 21.3203 85.6981 21.4688 86.1825 21.4688C86.6044 21.4688 86.9637 21.4219 87.2606 21.3281C87.5731 21.2344 87.8622 21.1016 88.1278 20.9297V23.2969C87.8309 23.5938 87.4559 23.8438 87.0028 24.0469C86.5653 24.25 86.0106 24.3516 85.3387 24.3516C84.2762 24.3516 83.4091 24.0156 82.7372 23.3438C82.0809 22.6562 81.7528 21.7188 81.7528 20.5312V14.6484H79.62V13.125C80.37 12.8594 81.0575 12.3594 81.6825 11.625C82.3231 10.8906 82.8309 9.92188 83.2059 8.71875H84.7294Z" fill="#3F9142"/>
</svg>
